<?xml version="1.0" standalone="no"?>
<!DOCTYPE svg PUBLIC "-//W3C//DTD SVG 20010904//EN"
 "http://www.w3.org/TR/2001/REC-SVG-20010904/DTD/svg10.dtd">
<svg version="1.0" xmlns="http://www.w3.org/2000/svg"
 width="512.000000pt" height="512.000000pt" viewBox="0 0 512.000000 512.000000"
 preserveAspectRatio="xMidYMid meet">
<metadata>
Created by potrace 1.14, written by Peter Selinger 2001-2017
</metadata>
<g transform="translate(0.000000,512.000000) scale(0.100000,-0.100000)"
fill="#000000" stroke="none">
<path d="M2425 5104 c-303 -65 -533 -297 -590 -594 -25 -134 -14 -254 41 -430
3 -8 -3 -24 -13 -35 -31 -35 -227 -248 -248 -270 -11 -12 -60 -66 -110 -120
-49 -54 -105 -114 -124 -134 -29 -31 -159 -172 -230 -250 -13 -14 -62 -68
-110 -120 -47 -51 -97 -105 -110 -120 -13 -14 -67 -73 -120 -130 -53 -57 -103
-112 -111 -121 -8 -10 -62 -68 -120 -130 -58 -62 -112 -120 -120 -130 -8 -10
-58 -64 -110 -120 -52 -57 -106 -115 -119 -129 -13 -14 -58 -64 -101 -111 -43
-47 -89 -98 -102 -115 l-23 -30 -3 -940 c-3 -1033 -5 -997 57 -1043 66 -48 53
-51 813 188 387 122 750 237 808 255 58 19 222 71 365 116 143 44 438 137 655
206 217 68 467 147 555 175 88 27 189 59 225 71 36 11 70 22 75 23 6 2 125 39
265 84 140 44 262 83 270 85 8 2 85 26 170 53 85 28 272 86 415 131 397 124
386 120 427 183 17 25 18 99 17 1140 -1 911 -3 1125 -15 1178 -40 188 -157
362 -314 470 -57 39 -174 93 -226 104 -16 3 -40 9 -54 12 -69 15 -218 13 -295
-5 -44 -10 -87 -21 -97 -25 -12 -6 -24 4 -47 37 -83 121 -264 243 -421 284
-93 25 -281 22 -377 -5 l-73 -20 -34 47 c-96 129 -251 233 -411 277 -78 20
-253 25 -330 8z m296 -313 c119 -45 207 -131 264 -256 51 -114 133 -143 241
-87 98 51 136 63 215 67 190 11 353 -88 436 -263 44 -93 77 -123 142 -130 41
-4 59 1 119 33 95 49 153 63 248 60 240 -7 424 -194 429 -435 2 -87 -11 -143
-50 -220 -27 -53 -136 -170 -158 -170 -6 0 -18 -6 -26 -14 -29 -24 -125 -49
-200 -52 -178 -5 -336 94 -416 260 -19 39 -44 82 -56 94 -47 51 -124 56 -198
12 -85 -49 -164 -69 -263 -65 -76 3 -97 8 -163 40 -97 46 -172 121 -219 218
-19 40 -44 82 -56 95 -50 53 -116 55 -210 6 -94 -48 -157 -63 -248 -60 -191 8
-348 128 -410 311 -20 58 -22 190 -4 250 34 117 119 226 215 277 111 59 259
71 368 29z m-631 -996 c28 -34 160 -106 248 -135 123 -41 252 -50 372 -25 47
9 94 22 105 28 16 8 23 4 45 -24 110 -147 260 -250 425 -294 117 -31 304 -27
408 10 41 15 42 15 62 -12 11 -15 35 -44 54 -65 18 -21 31 -38 28 -38 -3 0
-70 -20 -149 -44 -79 -24 -159 -49 -178 -54 -19 -6 -123 -37 -230 -70 -406
-125 -1357 -415 -1400 -427 -25 -7 -238 -72 -475 -145 -558 -171 -758 -231
-761 -228 -1 2 23 30 53 63 153 164 194 209 268 290 44 49 91 100 105 114 14
15 50 53 79 86 30 33 82 89 115 125 71 76 231 251 271 295 15 17 71 77 124
135 54 58 126 137 161 175 36 39 69 75 75 81 5 6 43 47 84 92 41 45 80 82 86
82 7 0 18 -7 25 -15z m2730 -883 l0 -257 -62 -18 c-35 -9 -128 -35 -208 -58
-80 -22 -174 -49 -210 -60 -36 -10 -74 -21 -85 -24 -11 -2 -114 -31 -230 -64
-115 -32 -444 -125 -730 -205 -286 -81 -567 -161 -625 -178 -58 -16 -109 -31
-115 -32 -28 -7 -400 -112 -590 -166 -55 -16 -125 -36 -155 -44 -50 -13 -192
-53 -325 -91 -27 -8 -203 -58 -390 -110 -187 -53 -369 -104 -405 -115 -36 -10
-132 -38 -215 -61 -82 -23 -156 -44 -162 -46 -10 -4 -13 46 -13 230 l0 236 33
10 c34 10 363 110 462 141 78 24 192 59 770 235 264 80 530 161 590 180 61 19
157 48 215 65 185 56 301 91 785 240 110 34 216 66 235 72 19 5 116 35 215 65
99 30 194 59 210 63 17 4 111 33 210 64 99 31 187 53 195 50 8 -3 60 -7 115
-10 158 -6 308 33 430 112 28 18 51 33 53 33 1 1 2 -115 2 -257z m0 -852 l0
-279 -187 -60 c-104 -33 -354 -112 -558 -176 -203 -64 -404 -127 -445 -140
-348 -111 -594 -189 -600 -190 -19 -5 -100 -29 -180 -56 -52 -17 -122 -39
-155 -49 -33 -10 -154 -48 -270 -85 -115 -36 -282 -89 -370 -117 -88 -27 -180
-57 -205 -65 -25 -8 -108 -34 -185 -58 -77 -24 -192 -60 -255 -80 -63 -20
-234 -74 -380 -120 -146 -46 -366 -115 -490 -154 -123 -39 -228 -71 -232 -71
-4 0 -8 159 -8 354 0 329 1 355 18 360 9 3 145 41 302 85 157 44 407 114 555
156 149 42 277 78 285 80 8 2 159 45 335 95 176 50 352 99 390 110 39 11 180
51 315 89 135 38 319 90 410 116 225 63 355 100 705 199 165 46 422 119 570
160 149 42 299 85 335 95 197 57 276 79 288 80 9 1 12 -61 12 -279z"/>
</g>
</svg>
